<svg xmlns="http://www.w3.org/2000/svg" width="24" height="24" viewBox="0 0 24 24" fill="none" stroke="currentColor" stroke-width="2" stroke-linecap="round" stroke-linejoin="round" class="lucide lucide-butterfly">
    <path d="M5.5 17c-.78 1.43-1.5 2.5-2 3-1.63 1.73-2 2-2 2a.96.96 0 0 0 1.42 1.42c0 0 .27-.37 2-2 1.25-.97 2.87-2.14 4.5-3.5 1.5-.71 3-1.13 4.5-1.13s3 .42 4.5 1.13c1.63 1.36 3.25 2.53 4.5 3.5 1.73 1.63 2 2 2 2a.96.96 0 0 0 1.42-1.42c0 0-.37-2-2-2-1.23-.74-2.88-1.54-4.5-2.5-1.25-.71-2.5-1.13-3.5-1.13s-2.25.42-3.5 1.13c-1.62.96-3.27 1.76-4.5 2.5z"/>
    <path d="M2.22 17.06C2 17.5 2 18 2 18s.37 2 2 2c.78.43 1.62.77 2.5 1 .74.19 1.5.26 2.28.24h.44c.64-.04 1.28-.17 1.9-.38"/>
    <path d="M21.78 17.06C22 17.5 22 18 22 18s-.37 2-2 2c-.78.43-1.62.77-2.5 1-.74.19-1.5.26-2.28.24h-.44c-.64-.04-1.28-.17-1.9-.38"/>
    <path d="M12 2a.96.96 0 0 0-.82.4l-1.53 2.82C9.28 6.13 8.32 7 7 7c-.66 0-1.27-.2-1.8-.57-.96-.71-2.14-1.52-3-2.5-1.82-1.95-2-2-2-2a.96.96 0 0 0-.08 1.41c0 0 .5 1.52 2 2.5 1.5 1 3 1.5 4.5 1.5s3-.5 4.5-1.5c1.5-1 2-2.5 2-2.5a.96.96 0 0 0-.08-1.41s-.18.05-2 2c-.86.95-2.04 1.76-3 2.5-.53.37-1.14.57-1.8.57-1.32 0-2.28-.87-2.65-1.68L12.82 2.4A.96.96 0 0 0 12 2z"/>
</svg>
